<?xml version="1.0" encoding="iso-8859-1"?>
<!-- Generator: Adobe Illustrator 19.0.0, SVG Export Plug-In . SVG Version: 6.00 Build 0)  -->
<svg version="1.1" id="Capa_1" xmlns="http://www.w3.org/2000/svg" xmlns:xlink="http://www.w3.org/1999/xlink" x="0px" y="0px"
	 viewBox="0 0 512 512" style="enable-background:new 0 0 512 512;" xml:space="preserve">
<g>
	<g>
		<path d="M503.467,176.725h-26.795v-62.123c-0.014-4.707-3.826-8.519-8.533-8.533h-26.88V79.275c0.022-2.27-0.87-4.453-2.475-6.059
			s-3.789-2.497-6.059-2.475h-26.795v-26.88c-0.014-4.707-3.826-8.52-8.533-8.533h-26.795V8.533
			c-0.014-4.707-3.826-8.519-8.533-8.533H149.931c-4.707,0.014-8.519,3.826-8.533,8.533v26.795h-26.795
			c-4.707,0.014-8.52,3.826-8.533,8.533v26.88H79.275c-2.27-0.022-4.453,0.87-6.059,2.475s-2.497,3.789-2.475,6.059v26.795h-26.88
			c-4.707,0.014-8.519,3.826-8.533,8.533v62.123H8.533c-4.707,0.014-8.519,3.826-8.533,8.533v282.88
			c0.014,4.707,3.826,8.519,8.533,8.533h26.795v26.795c0.014,4.707,3.826,8.519,8.533,8.533h70.741
			c4.707-0.014,8.519-3.826,8.533-8.533v-26.795h26.795c4.707-0.014,8.519-3.826,8.533-8.533v-26.88h18.261v26.88
			c0.014,4.707,3.826,8.52,8.533,8.533h26.88v26.795c-0.008,2.266,0.889,4.441,2.491,6.043c1.602,1.602,3.777,2.499,6.043,2.491
			h70.656c2.266,0.008,4.441-0.889,6.043-2.491c1.602-1.602,2.499-3.777,2.491-6.043v-26.795h26.88
			c4.707-0.014,8.52-3.826,8.533-8.533v-26.88h18.261v26.88c0.014,4.707,3.826,8.519,8.533,8.533h26.795v26.795
			c0.014,4.707,3.826,8.519,8.533,8.533h70.741c4.707-0.014,8.519-3.826,8.533-8.533v-26.795h26.795
			c4.707-0.014,8.519-3.826,8.533-8.533v-282.88C511.986,180.552,508.174,176.739,503.467,176.725z M290.133,153.6
			c0.014-4.707,3.826-8.519,8.533-8.533h68.267c4.707,0.014,8.519,3.826,8.533,8.533v68.267c-0.014,4.707-3.826,8.519-8.533,8.533
			h-68.267c-4.707-0.014-8.519-3.826-8.533-8.533V153.6z M136.533,153.6c0.014-4.707,3.826-8.519,8.533-8.533h68.267
			c4.707,0.014,8.519,3.826,8.533,8.533v68.267c-0.014,4.707-3.826,8.519-8.533,8.533h-68.267c-4.707-0.014-8.519-3.826-8.533-8.533
			V153.6z M452.267,358.4c-0.014,4.707-3.826,8.519-8.533,8.533h-25.6v25.6c-0.014,4.707-3.826,8.519-8.533,8.533h-34.133
			c-4.707-0.014-8.519-3.826-8.533-8.533v-25.6h-25.6c-4.707-0.014-8.519-3.826-8.533-8.533v-25.6h-17.067v25.6
			c-0.014,4.707-3.826,8.519-8.533,8.533h-25.6v25.6c-0.014,4.707-3.826,8.519-8.533,8.533h-34.133
			c-4.707-0.014-8.519-3.826-8.533-8.533v-25.6h-25.6c-4.707-0.014-8.519-3.826-8.533-8.533v-25.6H179.2v25.6
			c-0.014,4.707-3.826,8.519-8.533,8.533h-25.6v25.6c-0.014,4.707-3.826,8.519-8.533,8.533H102.4
			c-4.707-0.014-8.519-3.826-8.533-8.533v-25.6h-25.6c-4.707-0.014-8.519-3.826-8.533-8.533v-34.133
			c0.014-4.707,3.826-8.519,8.533-8.533H102.4c4.707,0.014,8.519,3.826,8.533,8.533v25.6H128v-25.6
			c0.014-4.707,3.826-8.519,8.533-8.533h25.6v-25.6c0.014-4.707,3.826-8.519,8.533-8.533H204.8c4.707,0.014,8.519,3.826,8.533,8.533
			v25.6h25.6c4.707,0.014,8.519,3.826,8.533,8.533v25.6h17.067v-25.6c0.014-4.707,3.826-8.519,8.533-8.533h25.6v-25.6
			c0.014-4.707,3.826-8.519,8.533-8.533h34.133c4.707,0.014,8.519,3.826,8.533,8.533v25.6h25.6c4.707,0.014,8.519,3.826,8.533,8.533
			v25.6h17.067v-25.6c0.014-4.707,3.826-8.519,8.533-8.533h34.133c4.707,0.014,8.519,3.826,8.533,8.533V358.4z"/>
	</g>
</g>
<g>
</g>
<g>
</g>
<g>
</g>
<g>
</g>
<g>
</g>
<g>
</g>
<g>
</g>
<g>
</g>
<g>
</g>
<g>
</g>
<g>
</g>
<g>
</g>
<g>
</g>
<g>
</g>
<g>
</g>
</svg>
