<svg id="Capa_1" enable-background="new 0 0 512.001 512.001" height="512" viewBox="0 0 512.001 512.001" width="512" xmlns="http://www.w3.org/2000/svg"><path id="XMLID_2596_" d="m507.225 4.427c-3.657-3.681-8.959-5.209-14.012-4.042l-93.02 21.467c-2.879.665-5.498 2.165-7.528 4.312l-246.456 260.736-44.9-45.03c-.027-.027-.058-.05-.085-.077-.052-.053-.101-.109-.154-.162-9.024-9.05-21.025-14.034-33.792-14.034-12.767 0-24.769 4.984-33.793 14.034-18.6 18.654-18.6 49.005 0 67.659 9.024 9.05 21.025 14.034 33.793 14.034s24.769-4.984 33.793-14.034c4.434-4.447 7.798-9.563 10.118-15.023l24.11 24.18-86.268 86.576c-12.466 1.115-24.039 6.51-32.993 15.49-20.831 20.891-20.831 54.883 0 75.774 10.104 10.132 23.542 15.713 37.838 15.714 14.295 0 27.734-5.582 37.839-15.715 9.209-9.236 14.339-21.033 15.406-33.127.53-.405 86.311-86.411 86.311-86.411l24.102 24.172c-5.548 2.373-10.649 5.805-15.041 10.21-18.6 18.654-18.6 49.005 0 67.659 9.024 9.05 21.025 14.034 33.793 14.034s24.769-4.984 33.793-14.034c18.6-18.654 18.6-49.005 0-67.659-.052-.052-.107-.1-.16-.153-.028-.028-.051-.059-.079-.087l-44.963-45.093 260.046-247.228c2.108-2.004 3.588-4.578 4.259-7.408l21.998-92.696c1.198-5.049-.297-10.358-3.955-14.038zm-95.871 45.638 37.01-8.541-273.407 274.2-7.55-7.577zm-331.527 238.042c-3.354 3.364-7.811 5.217-12.549 5.217s-9.195-1.853-12.549-5.217c-6.954-6.973-6.954-18.32 0-25.293 3.355-3.364 7.812-5.217 12.55-5.217s9.194 1.853 12.548 5.217c6.953 6.973 6.953 18.319 0 25.293zm-9.356 186.996c-4.435 4.448-10.328 6.897-16.595 6.897-6.266 0-12.16-2.45-16.595-6.898-9.184-9.211-9.184-24.198 0-33.409 4.435-4.448 10.329-6.897 16.595-6.897s12.16 2.449 16.595 6.897c9.185 9.212 9.185 24.199 0 33.41zm28.295-45.848c-2.002-3.096-4.347-6.032-7.05-8.743-2.683-2.691-5.607-5.05-8.714-7.08l73.479-73.742 7.88 7.903.508.51 7.377 7.403zm150.069 28.351c-3.354 3.364-7.811 5.217-12.549 5.217s-9.195-1.853-12.549-5.217c-6.954-6.973-6.954-18.32 0-25.293 3.354-3.364 7.811-5.217 12.549-5.217s9.195 1.853 12.549 5.217c6.954 6.973 6.954 18.319 0 25.293zm-45.146-113.06-7.553-7.575 273.787-274.581-8.9 37.506z"/></svg>